<svg width="441" height="450" viewBox="0 0 441 450" fill="none" xmlns="http://www.w3.org/2000/svg">
<circle cx="220.5" cy="225.5" r="220.5" fill="#5183EF"/>
<path d="M115.5 225C115.5 204.4 120.1 186 129.3 169.8C138.7 153.4 151.4 140.7 167.4 131.7C183.6 122.5 201.7 117.9 221.7 117.9C245.1 117.9 265.6 123.9 283.2 135.9C300.8 147.9 313.1 164.5 320.1 185.7H271.8C267 175.7 260.2 168.2 251.4 163.2C242.8 158.2 232.8 155.7 221.4 155.7C209.2 155.7 198.3 158.6 188.7 164.4C179.3 170 171.9 178 166.5 188.4C161.3 198.8 158.7 211 158.7 225C158.7 238.8 161.3 251 166.5 261.6C171.9 272 179.3 280.1 188.7 285.9C198.3 291.5 209.2 294.3 221.4 294.3C232.8 294.3 242.8 291.8 251.4 286.8C260.2 281.6 267 274 271.8 264H320.1C313.1 285.4 300.8 302.1 283.2 314.1C265.8 325.9 245.3 331.8 221.7 331.8C201.7 331.8 183.6 327.3 167.4 318.3C151.4 309.1 138.7 296.4 129.3 280.2C120.1 264 115.5 245.6 115.5 225Z" fill="white"/>
</svg>
